# xmcd
#
# Track frame offsets:
#	150
#	11674
#	24212
#	35938
#	47505
#	58607
#	71080
#	83243
#	94820
#	107870
#
# Disc length: 1601 seconds
#
# Revision: 0
# Processed by: cddbd v1.5.2PL0 Copyright (c) Steve Scherf et al.
# Submitted via: audiograbber 1.83.01
#
DISCID=80063f0a
DTITLE=Hank Williams - Disk 3 of 3
DYEAR=1900
DGENRE=
TTITLE0=My Bucket's Got a Hole in It
TTITLE1=There's a Tear in My Beer
TTITLE2=Settin' the Woods on Fire
TTITLE3=My Son Calls Another Man Daddy
TTITLE4=Crazy Heart
TTITLE5=I'm So Lonesome I Could Cry
TTITLE6=Lost Highway
TTITLE7=A Mansion on the Hill
TTITLE8=Wedding Bells
TTITLE9=I Saw the Light
EXTD=
EXTT0=
EXTT1=
EXTT2=
EXTT3=
EXTT4=
EXTT5=
EXTT6=
EXTT7=
EXTT8=
EXTT9=
PLAYORDER=
